<?xml version="1.0" encoding="UTF-8"?>
<svg xmlns="http://www.w3.org/2000/svg" version="1.0" viewBox="0 0 1254 1254" preserveAspectRatio="xMidYMid meet" class="sr-svg">
 <g fill="#fffffe">
  <rect width="1254" height="1254" rx="250" ry="250" />
  <path d="M 570.67 1061.86 c-36.37 -13.10 -70.54 -31.35 -123.69 -66.37 -31.96 -21.06 -46.41 -29.76 -63.07 -38.21 -22.29 -11.14 -46.54 -19.23 -63.07 -21.06 l-6.74 -0.73 6.74 3.80 c14.21 8.33 34.41 22.41 53.27 37.35 21.55 17.02 54.86 39.68 72.74 49.60 22.78 12.49 48.86 22.78 76.66 30.13 17.63 4.53 47.39 10.04 55.11 10.16 4.29 0 3.31 -0.61 -7.96 -4.65z m199 1.71 c6.74 -0.98 18.37 -3.31 25.72 -5.27 l13.47 -3.31 -18.98 -0.73 c-55.84 -2.20 -110.70 -21.55 -177.57 -62.58 -10.41 -6.37 -27.80 -17.39 -38.58 -24.25 -51.31 -33.06 -78.99 -47.88 -119.40 -63.80 -40.53 -16.16 -79.23 -23.27 -112.66 -20.82 -19.59 1.35 -31.59 3.67 -48.98 9.43 -12.12 4.04 -36.25 14.94 -35.15 15.92 0.24 0.24 3.18 -0.12 6.49 -0.73 10.04 -2.20 47.51 -2.94 61.72 -1.35 49.96 5.76 80.09 19.23 173.77 77.76 40.90 25.59 59.88 36.13 91.97 50.58 37.60 17.02 79.35 27.68 123.69 31.47 10.16 0.86 42.13 -0.49 54.50 -2.33z m73.48 -36.25 l9.80 -1.59 -11.63 -0.98 c-40.04 -3.06 -57.43 -6 -86.58 -14.57 -19.23 -5.63 -54.37 -18.86 -78.62 -29.51 -9.18 -4.04 -29.02 -12.86 -44.21 -19.59 -32.33 -14.45 -52.90 -23.15 -53.39 -22.78 -0.86 0.98 70.90 43.96 86.09 51.56 36.62 18.49 76.29 31.96 107.52 36.86 6.74 1.10 13.59 2.20 15.31 2.45 6.12 1.10 46.17 -0.24 55.72 -1.84z m37.96 -29.27 c38.33 -8.08 77.52 -29.27 103.48 -55.72 l7.96 -8.08 -13.35 7.96 c-23.27 13.84 -48.86 23.76 -77.89 30.25 -11.39 2.57 -16.16 2.82 -40.41 2.94 -16.53 0 -31.96 -0.61 -38.58 -1.59 -17.27 -2.57 -39.92 -8.33 -53.88 -13.84 l-12.86 -5.02 0 -4.78 0 -4.78 5.27 0 c2.82 0 7.35 0.61 10.04 1.22 9.55 2.33 35.64 4.90 49.84 4.90 l14.33 0 19.59 -29.39 19.59 -29.39 -10.04 -7.10 c-28.17 -20.21 -48.86 -32.82 -75.68 -46.29 -31.35 -15.68 -46.41 -22.04 -46.41 -19.47 0 0.37 -1.96 28.29 -4.29 62.09 -2.33 33.92 -4.53 66.99 -5.02 73.60 l-0.73 11.88 -4.16 0 c-2.57 0 -4.16 -0.61 -4.16 -1.47 0 -0.86 -0.86 -13.10 -1.84 -27.31 -2.94 -41.15 -7.96 -116.09 -7.96 -118.42 0 -1.71 -1.84 -1.35 -11.88 2.82 -17.14 7.10 -54.62 25.47 -68.58 33.68 -14.21 8.33 -28.90 17.88 -45.56 29.88 l-12.25 8.69 7.10 11.63 6.98 11.63 41.64 17.76 c96.87 41.64 138.26 56.09 177.45 62.21 6.74 1.10 13.59 2.20 15.31 2.45 1.71 0.37 12.49 0.37 23.88 0.12 15.19 -0.37 24.12 -1.10 33.06 -3.06z m125.03 -45.92 c-0.73 -2.82 -1.10 -2.94 -3.43 -1.71 l-2.69 1.47 2.94 2.33 c3.31 2.69 4.29 2.20 3.18 -2.08z m-722.27 0.86 l3.55 -2.08 -2.82 -2.20 c-3.06 -2.20 -3.43 -1.96 -4.65 3.18 -0.98 3.92 -0.73 4.04 3.92 1.10z m615.98 -10.78 c6.61 -4.29 44.94 -43.96 56.58 -58.66 42.98 -54.25 71.64 -114.01 86.21 -179.53 3.80 -17.14 3.80 -16.78 0.73 -13.96 -1.35 1.22 -2.45 3.18 -2.45 4.41 0 1.22 -1.71 6.49 -3.80 11.76 -2.08 5.27 -6.37 17.27 -9.31 26.70 -27.06 84.74 -72.99 154.06 -138.14 208.67 l-4.90 4.04 6.12 -0.86 c3.43 -0.49 7.35 -1.59 8.94 -2.57z m113.03 -54.86 c4.78 -3.67 9.55 -9.31 14.82 -17.51 32.45 -49.60 55.11 -102.87 67.60 -159.08 3.92 -18 8.69 -45.68 7.84 -46.41 -0.24 -0.24 -3.18 0.86 -6.61 2.45 l-6.12 2.69 -1.59 10.90 c-7.59 52.78 -25.84 107.15 -51.19 152.95 -9.18 16.41 -30 47.64 -40.78 60.99 l-8.69 10.90 8.94 -6.25 c4.90 -3.43 12 -8.69 15.80 -11.63z m-750.81 -13.47 c0 -0.61 -1.35 -2.82 -2.94 -4.90 -5.27 -6.98 -24.12 -40.17 -30.98 -54.50 -19.72 -41.64 -33.43 -85.85 -39.68 -127.97 -1.22 -8.69 -2.45 -15.92 -2.57 -16.04 -0.24 -0.24 -3.31 -1.71 -6.74 -3.55 -4.41 -2.20 -6.49 -2.69 -6.49 -1.71 0 0.86 1.35 10.29 3.06 20.82 7.23 46.29 23.15 96.38 43.72 137.40 6.86 13.72 20.82 37.96 28.04 48.74 l4.78 6.98 4.90 -2.08 c2.69 -1.10 4.90 -2.57 4.90 -3.18z m46.29 -14.82 c0.24 -0.24 -1.47 -3.06 -3.80 -6.37 -11.63 -16.41 -27.68 -46.29 -40.78 -75.68 -17.51 -39.68 -23.15 -56.94 -24.61 -75.56 -0.73 -8.94 -0.86 -9.43 -4.29 -10.90 -1.96 -0.73 -3.80 -1.22 -4.04 -0.86 -1.22 1.22 8.57 38.70 15.19 58.54 13.47 39.68 29.51 73.48 49.35 103.23 6.74 9.92 7.35 10.65 9.92 9.31 1.47 -0.86 2.82 -1.59 3.06 -1.71z m342.03 -39.80 c9.06 -4.65 29.15 -13.96 44.45 -20.70 21.31 -9.43 29.15 -12.37 33.19 -12.37 4.16 0 10.90 2.57 30.25 11.51 26.94 12.37 56.94 27.19 69.44 34.29 4.29 2.45 7.96 4.29 8.20 4.16 0.12 -0.24 -1.10 -6.37 -2.94 -13.84 l-3.31 -13.35 -11.63 -4.65 c-18.12 -7.35 -61.35 -23.88 -76.54 -29.27 l-13.59 -4.90 -38.33 14.21 c-21.06 7.72 -42.25 15.68 -47.03 17.63 -4.90 1.96 -10.65 4.16 -12.86 5.02 -2.20 0.86 -4.53 2.45 -5.02 3.55 -0.86 1.71 -6.25 23.15 -6.25 24.98 0 0.37 3.43 -1.22 7.72 -3.67 4.16 -2.33 15.06 -8.08 24.25 -12.61z m230.72 -3.92 c14.82 -4.29 18.12 -5.63 36.13 -14.70 31.11 -15.68 55.60 -37.60 75.31 -67.11 15.06 -22.53 24.61 -45.31 30.13 -71.03 4.16 -19.35 3.92 -47.51 -0.49 -63.92 -6 -22.53 -17.63 -43.35 -32.33 -57.43 -7.72 -7.47 -26.08 -20.70 -28.78 -20.70 -0.61 0 -0.98 -2.33 -0.73 -5.14 0.37 -5.27 0.49 -5.27 10.04 -10.41 29.88 -16.04 51.07 -41.39 61.11 -73.23 8.57 -27.43 7.10 -54.50 -4.41 -81.19 -14.08 -32.70 -40.66 -55.60 -74.95 -64.78 l-12.25 -3.31 -91.85 -0.37 -91.85 -0.37 -14.57 26.08 c-29.51 52.54 -122.22 213.20 -132.14 229 -1.96 3.18 -3.31 6.12 -2.94 6.49 0.73 0.73 9.80 -0.61 40.66 -6.12 13.47 -2.45 26.82 -4.41 29.76 -4.41 4.78 0 5.14 0.24 5.14 3.43 0 3.92 -16.78 35.64 -55.11 103.72 -19.47 34.66 -32.70 58.54 -52.05 93.68 -11.27 20.57 -21.68 39.31 -23.02 41.64 -1.35 2.33 -1.96 3.80 -1.22 3.06 4.78 -5.02 26.21 -31.11 73.48 -90.01 9.43 -11.76 28.04 -34.66 41.39 -50.82 13.23 -16.16 33.80 -41.27 45.68 -55.72 26.21 -31.96 65.88 -79.97 78.25 -94.54 5.02 -6 8.57 -10.78 7.84 -10.78 -2.20 0 -51.31 7.23 -62.58 9.18 -5.76 0.98 -12.25 1.84 -14.33 1.84 -3.80 0 -4.04 -0.24 -4.04 -4.41 0 -3.67 3.55 -9.67 22.29 -36.98 34.04 -49.96 56.21 -81.56 58.41 -83.27 1.47 -1.22 14.94 -1.47 64.41 -1.22 l62.46 0.37 6.74 3.18 c10.04 4.78 16.53 11.02 21.06 20.45 3.92 7.96 4.04 8.57 4.04 24.25 l0 16.04 -5.14 10.41 c-8.94 18 -25.84 30.98 -47.88 36.62 -7.47 1.84 -13.59 2.33 -31.96 2.33 l-22.78 0.12 -17.76 22.90 c-9.80 12.49 -25.10 31.96 -33.92 43.23 -8.94 11.27 -16.29 20.70 -16.29 20.94 0 0.12 21.31 0.37 47.51 0.37 53.03 0 55.11 0.24 72.50 8.82 17.39 8.45 30.86 25.84 36.13 46.29 2.33 9.31 2.45 32.08 0 43.11 -8.45 40.17 -38.09 76.05 -77.89 94.54 -5.63 2.69 -12.61 5.51 -15.43 6.37 -2.94 0.86 -5.27 1.84 -5.27 2.33 0 0.49 2.69 5.39 6.12 10.90 7.23 12.12 12.74 25.96 14.82 37.23 l1.59 8.20 4.29 -0.73 c2.45 -0.49 9.92 -2.45 16.65 -4.41z m-368 -33.68 c1.35 -2.57 12.86 -23.39 25.59 -46.29 l23.02 -41.64 -87.07 -0.61 c-90.62 -0.73 -90.38 -0.73 -98.46 -5.88 -1.59 -0.98 -4.29 -4.41 -6.12 -7.47 -3.06 -5.27 -3.31 -6.49 -3.18 -19.72 l0.12 -14.08 13.59 -40.41 c7.59 -22.17 13.72 -40.53 13.72 -40.66 0 -0.24 33.06 -0.24 73.48 0 40.29 0.24 73.84 0.12 74.46 -0.24 0.98 -0.73 28.04 -44.09 45.68 -73.23 l8.33 -13.84 -83.03 0 c-45.80 0 -84.01 -0.37 -85.11 -0.73 -1.10 -0.37 -1.96 -2.08 -1.96 -3.80 0 -3.92 22.29 -70.90 26.21 -78.50 5.63 -11.02 12.25 -18.12 21.19 -22.53 l8.33 -4.04 89.64 -0.61 89.64 -0.61 25.84 -42 c14.08 -23.15 25.72 -42.25 25.72 -42.62 0 -0.24 -51.19 -0.49 -113.64 -0.49 -125.40 0 -131.16 0.24 -152.46 7.35 -32.08 10.78 -58.90 33.31 -77.76 65.52 -6.86 11.76 -9.43 18.74 -23.39 63.07 -6.61 21.19 -20.70 65.27 -31.11 97.97 -53.27 166.42 -52.29 163.12 -52.17 177.57 0 28.78 14.70 59.52 35.88 75.44 9.80 7.47 19.84 12.37 30.62 15.19 8.08 2.20 14.82 2.33 95.27 2.33 l86.58 0.12 2.57 -4.53z m150.14 -16.04 l-8.08 -0.37 0 -9.43 c0 -5.14 0.37 -11.51 0.73 -13.96 l0.86 -4.65 16.29 0 16.41 0 0 11.14 c0 8.33 0.37 11.02 1.59 10.65 0.98 -0.37 1.59 -4.04 1.84 -11.27 l0.37 -10.65 15.55 0.37 15.55 0.37 0.37 6.49 c0.37 5.39 0.73 6.37 2.82 6.37 1.96 0 2.33 -0.86 2.33 -6.74 l0 -6.74 15.31 0 15.31 0 0 10.29 c0 7.96 0.37 10.41 1.84 11.02 1.59 0.49 1.84 -1.10 1.84 -10.41 l0 -11.02 16.90 0.37 16.78 0.37 0.37 13.84 0.37 13.72 -7.72 0 -7.72 0.12 11.02 4.16 c6 2.33 11.02 4.04 11.14 3.92 0.12 -0.12 -0.86 -5.76 -2.08 -12.49 -1.22 -6.74 -2.20 -14.82 -2.33 -18 l0 -5.88 4.29 0 c3.31 0 4.29 -0.49 4.29 -2.08 -0.12 -5.39 2.08 -5.27 -82.78 -5.02 l-80.70 0.37 -0.37 3.43 c-0.37 3.06 -0.12 3.31 3.92 3.31 4.04 0 4.41 0.24 4.41 3.67 0 1.96 -1.10 9.31 -2.45 16.16 -3.55 18.49 -4.29 17.51 8.69 12.86 l11.14 -3.92 -8.08 -0.37z m109.11 -55.96 c-0.49 -1.10 -2.33 -1.84 -5.02 -1.84 -2.33 0 -5.76 -0.61 -7.72 -1.35 -1.84 -0.86 -4.78 -1.35 -6.49 -1.22 -1.71 0.12 -7.23 -0.61 -12.25 -1.47 l-9.18 -1.59 -0.37 -23.15 c-0.24 -23.39 -0.98 -26.82 -4.78 -23.63 -1.22 0.98 -1.59 6.98 -1.59 23.76 0 14.08 -0.49 22.66 -1.22 23.15 -0.73 0.49 -6.49 1.10 -12.86 1.47 -10.78 0.73 -11.63 0.61 -11.76 -1.59 -0.12 -1.71 -0.37 -1.59 -0.98 0.73 -0.86 3.18 -4.04 4.53 -10.78 4.78 -3.67 0.12 -6.25 1.96 -4.90 3.43 0.37 0.24 9.67 -0.61 20.82 -1.96 24.49 -3.18 27.31 -3.06 50.45 0.37 10.16 1.47 18.61 2.57 18.86 2.33 0.24 -0.12 0.12 -1.10 -0.24 -2.20z m-534.79 -98.70 c0 -53.27 -0.12 -56.45 -2.08 -55.84 -2.57 0.73 -41.51 17.14 -48.74 20.45 -2.69 1.22 -18.98 8.08 -36.13 15.31 -17.14 7.23 -33.92 14.21 -37.11 15.68 -3.18 1.35 -5.39 2.94 -4.90 3.43 0.98 0.98 45.56 20.82 94.66 42.13 9.80 4.29 21.31 9.43 25.72 11.39 4.41 2.08 8.08 3.80 8.33 3.80 0.12 0.12 0.24 -25.35 0.24 -56.33z m842.53 37.60 c9.06 -3.92 18.25 -7.84 20.45 -8.82 2.08 -0.98 4.41 -1.71 5.02 -1.71 0.73 0 2.82 -0.86 4.78 -1.84 6.25 -3.18 20.08 -9.18 23.39 -10.04 1.71 -0.37 4.90 -1.71 6.98 -2.82 1.96 -1.10 10.16 -4.78 18 -8.08 7.96 -3.31 14.45 -6.37 14.45 -6.74 0 -0.73 -16.78 -8.08 -86.33 -37.35 -22.90 -9.67 -41.76 -17.27 -42 -17.02 -0.24 0.24 0.49 7.23 1.71 15.55 2.94 18.98 3.06 68.09 0.24 83.76 l-1.71 9.92 9.18 -3.92 c5.14 -2.20 16.78 -7.10 25.84 -10.90z m-890.66 -114.62 c10.29 -62.58 39.68 -135.81 76.66 -191.04 19.10 -28.41 48.62 -64.90 66.50 -82.17 44.82 -43.11 125.64 -86.46 192.14 -103.23 15.43 -3.80 41.64 -8.94 52.05 -10.16 l7.96 -0.98 3.31 -6.74 c1.84 -3.67 3.43 -7.10 3.43 -7.59 0.12 -4.29 -60.74 7.72 -92.46 18.25 -60.62 19.84 -118.30 52.29 -167.16 93.93 -11.14 9.55 -11.39 9.80 -8.82 11.51 1.84 1.22 2.69 3.06 2.69 5.76 0 3.43 -1.22 5.02 -9.43 12 -5.27 4.41 -13.96 12.49 -19.35 17.88 -7.35 7.47 -10.53 9.92 -12.98 9.92 -2.69 0 -4.90 2.08 -12.37 12 -11.14 14.45 -23.88 33.55 -33.43 49.72 -15.80 26.94 -36.13 73.23 -46.41 106.05 -7.96 25.23 -12.37 44.94 -18.61 82.91 l-0.61 3.92 7.10 -2.94 7.10 -2.82 2.69 -16.16z m912.70 16.65 c0 -4.16 -6.37 -38.09 -9.67 -51.56 -6.86 -27.55 -17.88 -60.37 -28.04 -82.42 l-2.33 -5.27 -1.59 10.90 -1.47 10.90 4.41 11.88 c9.80 26.21 21.31 71.27 24.61 96.01 0.86 6.25 1.10 6.74 6 8.82 6.25 2.82 8.08 2.94 8.08 0.73z m-865.31 -22.17 c3.06 -1.35 4.65 -2.82 5.14 -5.27 14.57 -61.48 38.58 -115.48 71.88 -161.28 24.86 -34.17 68.58 -77.03 97.60 -95.52 9.55 -6.12 28.53 -17.27 34.90 -20.45 2.08 -0.98 7.59 -3.80 12.25 -6.25 17.39 -8.82 47.51 -21.55 61.23 -25.72 20.82 -6.37 27.80 -8.33 35.15 -10.16 8.08 -1.96 8.20 -2.08 10.04 -7.35 l1.84 -5.39 -3.31 0 c-4.78 0 -30.62 6.49 -46.90 11.76 -41.76 13.47 -91.36 40.78 -133.36 73.23 -17.27 13.35 -50.58 46.90 -64.66 65.03 -29.76 38.33 -55.47 86.09 -70.90 131.03 -4.53 13.23 -11.63 37.84 -13.84 47.76 -0.73 3.43 -1.59 7.10 -1.96 8.33 -0.73 2.57 -0.73 2.57 4.90 0.24z m807.02 -0.24 c-2.82 -12.86 -8.20 -33.06 -8.94 -33.80 -0.49 -0.49 -2.08 0.73 -3.43 2.69 -2.69 3.43 -2.69 3.55 -0.37 12.49 1.22 5.02 2.57 10.53 2.94 12.37 0.61 2.69 6 7.10 10.16 8.33 0 0 -0.12 -0.98 -0.37 -2.08z m-50.21 -260.72 c0.98 -5.27 1.59 -9.80 1.35 -10.04 -0.37 -0.37 -15.31 6.74 -16.41 7.84 -0.37 0.24 2.45 3.18 6.12 6.49 3.67 3.31 6.74 5.88 6.98 5.63 0.12 -0.12 1.10 -4.65 1.96 -9.92z m-703.42 -6.37 c-3.43 -1.59 -6.49 -2.69 -6.86 -2.45 -0.24 0.24 0.12 4.04 0.86 8.20 l1.35 7.72 5.51 -5.39 5.39 -5.27 -6.25 -2.82z m573.73 -9.31 c-36.49 -24.37 -76.78 -43.11 -116.34 -54.01 -17.14 -4.65 -34.90 -8.45 -35.76 -7.59 -0.24 0.37 0.49 3.06 1.84 6 l2.33 5.27 15.19 3.31 c36 7.96 85.60 28.04 113.77 46.05 7.35 4.78 8.57 5.14 16.53 5.14 l8.57 0 -6.12 -4.16z m92.46 2.94 c4.29 -2.94 -40.66 -40.53 -71.76 -60.13 -44.45 -28.04 -102.99 -50.09 -159.69 -60.37 -14.33 -2.57 -38.09 -5.88 -38.58 -5.39 -0.86 0.86 7.10 16.90 8.45 16.90 4.29 0 35.39 5.14 47.88 7.96 73.11 16.16 136.54 46.78 188.71 91.36 6.12 5.14 12.49 9.67 14.08 10.04 5.27 0.98 9.06 0.86 10.90 -0.37z m-307.38 -17.14 c-0.12 -0.37 -2.20 -4.78 -4.78 -9.80 l-4.78 -9.06 -4.90 9.67 -4.90 9.80 9.67 0 c5.39 0 9.67 -0.24 9.67 -0.61z m41.02 -43.11 c0.73 -0.61 -8.82 -22.04 -32.45 -73.23 -8.20 -17.88 -15.68 -34.04 -16.41 -36.13 l-1.59 -3.67 -6.49 13.47 c-10.29 21.55 -45.31 98.95 -45.31 100.17 0 1.10 101.15 0.49 102.25 -0.61z"/>
  <path d="M685.17 867.88 c-5.51 -4.65 -5.76 -17.76 -0.61 -22.90 1.96 -1.96 4.16 -2.45 10.41 -2.45 6.98 0 8.45 0.37 11.02 3.06 2.57 2.57 3.06 4.04 3.06 10.65 -0.12 11.02 -3.55 14.45 -14.57 14.45 -4.65 0 -6.86 -0.73 -9.31 -2.82z"/>
  <path d="M175.36 632.88 c-0.86 -0.86 -1.47 -2.08 -1.47 -2.82 0 -0.73 -2.20 -8.20 -4.90 -16.53 -2.69 -8.33 -4.90 -17.51 -4.90 -20.33 0 -5.63 1.35 -6.61 10.04 -6.61 4.53 0 4.53 0 6.86 7.72 l2.20 7.59 2.57 -7.35 2.45 -7.35 7.23 0 7.23 0 2.57 7.35 2.57 7.23 1.71 -6.49 c1.84 -7.35 3.80 -8.69 12.86 -8.69 5.27 0 5.39 0.12 5.39 3.80 0 2.08 -2.82 12.61 -6.25 23.27 l-6.12 19.47 -7.84 0 -7.72 0 -2.45 -6.98 -2.33 -7.10 -2.20 6.74 c-1.22 3.67 -2.82 7.10 -3.55 7.59 -2.20 1.47 -12.37 1.10 -13.96 -0.49z"/>
  <path d="M1065.41 609.24 l0 -23.88 18.98 0 18.98 0 0 7.35 c0 5.51 -0.49 7.59 -1.84 8.08 -0.98 0.49 -1.47 1.22 -1.10 1.96 0.37 0.61 0.37 4.16 -0.12 7.72 l-0.73 6.61 -9.43 0.49 -9.43 0.37 11.39 0.24 11.27 0.24 0 7.35 0 7.35 -18.98 0 -18.98 0 0 -23.88z"/>
  <path d="M618.43 154.91 l0 -23.88 7.35 0 7.23 0 6.25 8.08 6.12 8.20 0 -8.20 0 -8.08 7.35 0 7.35 0 0 23.88 0 23.88 -7.23 0 -7.35 0 -5.27 -7.59 -5.27 -7.47 -0.37 7.47 -0.37 7.59 -7.84 0 -7.96 0 0 -23.88z"/>
 </g>
 <g fill="#11181e">
  <path d="M586.59 1071.41 c-49.23 -3.80 -102.99 -19.35 -143.40 -41.51 -17.88 -9.80 -51.19 -32.57 -72.62 -49.47 -33.19 -26.33 -50.82 -37.35 -71.76 -45.07 l-12.86 -4.65 18.98 0.49 c20.82 0.61 30.62 2.33 50.21 8.82 25.47 8.45 49.35 21.43 95.52 51.80 44.82 29.51 73.97 45.92 105.32 59.27 10.78 4.53 52.54 18.86 60.62 20.82 3.92 0.86 -15.92 0.61 -30 -0.49z"/>
  <path d="M783.75 1032.84 c-1.71 -0.24 -8.57 -1.35 -15.31 -2.45 -31.23 -4.90 -70.90 -18.37 -107.40 -36.74 -10.53 -5.27 -44.21 -24.98 -67.11 -39.31 -9.80 -6 -24.74 -15.06 -33.31 -19.96 -8.69 -4.90 -15.68 -9.31 -15.68 -9.92 0 -2.33 3.06 -2.33 10.78 0.12 14.70 4.90 41.76 15.92 74.95 30.62 17.88 7.96 39.92 17.76 49.11 21.80 40.17 17.76 80.58 31.47 110.34 37.47 24.49 4.90 37.96 6.12 69.07 6.12 l29.51 0.12 -13.72 3.80 c-23.15 6.61 -34.29 8.08 -62.46 8.45 -14.08 0.24 -27.06 0.12 -28.78 -0.12z"/>
  <path d="M270.88 1014.83 c-3.31 -1.47 -3.31 -1.84 -0.24 -12.37 1.35 -4.65 2.20 -8.82 1.84 -9.06 -0.24 -0.37 -3.67 1.96 -7.47 5.14 -7.35 6 -9.18 6.61 -11.39 3.92 -1.10 -1.35 -0.98 -3.67 0.98 -10.16 1.35 -4.53 3.06 -10.65 3.80 -13.47 1.10 -4.41 1.84 -5.27 4.29 -5.27 3.67 0 3.67 -0.49 0.49 10.78 -1.35 4.90 -2.20 9.31 -1.84 9.67 0.37 0.49 3.67 -2.08 7.35 -5.51 6.86 -6.61 9.31 -7.47 11.51 -4.78 0.98 1.10 0.61 4.16 -1.59 11.02 -1.59 5.14 -2.45 9.43 -2.08 9.43 0.49 0 3.55 -2.20 6.86 -4.90 5.88 -4.90 13.10 -6.74 12.86 -3.31 0 0.73 -5.14 5.63 -11.39 10.78 -9.80 7.96 -11.63 9.06 -13.96 8.08z"/>
  <path d="M1006.14 1011.77 c-1.59 -2.57 0.73 -5.76 4.53 -6 4.90 -0.37 9.18 -4.41 7.23 -6.86 -1.22 -1.47 -2.45 -1.35 -8.69 0.24 -6.61 1.71 -7.47 1.71 -10.41 -0.24 -3.55 -2.33 -4.41 -8.57 -1.59 -12.12 1.96 -2.69 9.55 -7.10 12 -7.10 2.82 0 3.92 4.90 1.35 5.76 -8.82 2.69 -10.78 4.53 -8.82 7.72 0.86 1.35 2.33 1.22 8.33 -0.49 8.33 -2.57 11.27 -1.71 13.59 4.04 1.22 2.94 1.22 4.16 -0.37 7.23 -2.69 5.27 -15.19 11.02 -17.14 7.84z"/>
  <path d="M820.49 1004.67 c-1.71 -0.24 -8.57 -1.35 -15.31 -2.45 -39.19 -6.12 -80.58 -20.57 -177.57 -62.21 l-41.51 -17.76 -8.33 -13.84 c-4.53 -7.59 -8.20 -14.21 -7.96 -14.70 0.86 -2.33 45.07 -32.08 62.70 -42.25 21.06 -12.12 72.74 -36.13 81.56 -37.96 3.06 -0.61 3.55 -0.37 3.55 2.20 0 2.94 4.29 67.72 8.08 120.50 0.98 14.70 1.96 27.06 2.20 27.31 0.24 0.24 0.86 -5.02 1.22 -11.63 5.02 -74.95 9.43 -135.56 10.04 -136.42 2.08 -3.55 16.04 1.71 51.92 19.72 24.25 12 37.35 19.84 61.35 36.13 20.33 13.72 27.92 19.35 28.04 20.45 0 0.49 -9.43 14.94 -20.82 32.08 l-20.94 31.35 -18 0 c-17.27 0 -43.11 -2.33 -53.52 -4.90 -6.25 -1.47 -7.96 -1.47 -7.96 -0.12 0 1.96 24.98 11.02 40.66 14.82 23.39 5.51 34.78 6.74 61.60 6.61 26.08 -0.12 32.82 -1.10 58.78 -8.69 29.76 -8.69 62.94 -26.45 88.91 -47.64 4.41 -3.67 8.82 -6.61 9.55 -6.61 2.69 0 -8.94 14.94 -23.63 30.25 -31.84 33.19 -67.97 53.76 -110.34 62.82 -9.67 2.08 -17.51 2.69 -36.74 3.06 -13.47 0.24 -25.84 0.24 -27.55 -0.12z m-120.87 -139.12 c4.04 -2.08 5.63 -4.78 5.76 -9.31 0.12 -10.41 -14.33 -14.08 -19.10 -4.90 -2.45 4.65 -1.22 10.04 2.82 13.23 3.55 2.82 6.74 3.06 10.53 0.98z"/>
  <path d="M1025.73 984.95 l-8.45 -11.88 3.92 -3.31 c2.20 -1.84 6.37 -5.02 9.31 -7.10 5.39 -3.80 5.39 -3.80 6.74 -1.22 0.86 1.35 1.22 2.69 0.98 2.82 -0.24 0.24 -2.94 2.08 -6.12 4.29 -6 3.92 -6.98 5.88 -4.53 8.33 1.84 1.84 4.53 0.86 8.69 -3.06 3.31 -3.06 7.10 -3.06 7.10 0 0 0.86 -2.20 3.18 -4.90 5.02 -5.27 3.67 -6 5.76 -3.06 8.20 1.47 1.22 2.82 0.73 7.35 -3.06 5.51 -4.41 9.18 -5.02 9.18 -1.35 0 1.35 -15.68 14.33 -17.27 14.21 -0.24 0 -4.29 -5.39 -8.94 -11.88z"/>
  <path d="M230.10 985.93 c-2.69 -2.57 -4.78 -5.63 -4.78 -6.74 0 -2.82 3.67 -4.04 5.02 -1.71 2.08 3.80 5.51 6.98 7.84 7.35 3.92 0.61 3.55 -3.55 -0.61 -8.82 -4.65 -5.88 -4.53 -10.29 0.24 -13.84 2.33 -1.71 4.16 -2.20 6.61 -1.59 4.53 1.22 11.76 8.45 10.78 11.02 -1.10 2.82 -2.69 2.45 -6.74 -1.84 -3.31 -3.55 -7.10 -4.41 -8.08 -1.59 -0.24 0.73 1.22 3.43 3.31 6 4.90 6.12 5.63 9.67 3.18 13.47 -1.59 2.45 -3.06 3.06 -6.98 3.06 -4.29 0 -5.88 -0.73 -9.80 -4.78z"/>
  <path d="M971.97 915.40 c22.17 -24 45.92 -56.94 61.97 -85.72 25.35 -45.80 43.60 -100.17 51.19 -152.95 l1.59 -10.78 7.84 -3.55 c4.29 -1.96 9.06 -3.55 10.65 -3.55 2.57 0 2.82 0.49 2.33 4.04 -6.49 50.21 -14.57 82.54 -30.74 123.32 -17.39 43.96 -45.80 93.32 -60.25 104.83 -8.57 6.98 -38.70 27.06 -48.49 32.45 l-7.35 4.04 11.27 -12.12z"/>
  <path d="M242.84 874.13 c-24.25 -37.60 -38.45 -67.35 -52.41 -109.36 -8.69 -26.08 -15.19 -53.03 -18.86 -77.76 -3.67 -24.86 -3.67 -27.43 -0.49 -27.92 1.96 -0.24 16.04 5.51 18.49 7.72 0.12 0.12 1.35 7.35 2.57 16.04 9.31 62.94 35.27 129.81 71.27 183.08 l7.10 10.53 -9.43 4.16 c-5.14 2.33 -9.67 4.29 -10.16 4.53 -0.37 0.24 -4.04 -4.78 -8.08 -11.02z"/>
  <path d="M830.29 839.22 c-23.27 -13.23 -97.97 -49.35 -102.25 -49.35 -4.90 0 -76.17 33.43 -104.34 48.98 -6.25 3.43 -11.39 5.63 -11.39 4.90 0 -2.57 7.59 -34.78 8.69 -36.86 0.49 -1.10 2.82 -2.69 5.02 -3.55 2.20 -0.86 7.96 -3.06 12.86 -5.02 26.33 -10.65 85.72 -31.72 89.03 -31.72 2.20 0 10.04 2.20 17.39 4.78 29.64 10.65 86.09 32.57 87.68 34.29 0.98 0.86 9.92 39.31 9.31 39.92 -0.24 0.12 -5.63 -2.69 -12 -6.37z"/>
  <path d="M325.01 787.42 c-27.31 -7.10 -49.35 -27.68 -60.13 -56.21 -6.37 -16.65 -8.33 -41.15 -4.65 -58.17 1.71 -8.33 10.78 -37.11 50.45 -161.16 10.41 -32.70 24.49 -76.78 31.11 -97.97 13.96 -44.33 16.53 -51.31 23.39 -63.07 18.86 -32.21 45.68 -54.74 77.76 -65.52 21.43 -7.10 26.45 -7.35 158.71 -7.35 l119.89 0 -2.45 3.92 c-1.22 2.20 -13.96 23.02 -28.29 46.29 l-25.96 42.25 -89.64 0.61 -89.64 0.61 -8.33 4.04 c-8.94 4.41 -15.55 11.51 -21.19 22.53 -1.59 3.31 -8.08 21.31 -14.45 40.17 -9.06 27.06 -11.02 34.29 -9.67 34.90 0.98 0.37 40.04 0.61 86.82 0.61 46.78 0 84.99 0.24 84.99 0.61 0 1.71 -56.33 92.70 -57.92 93.93 -0.73 0.37 -34.29 0.61 -74.58 0.37 -40.29 -0.24 -73.23 -0.24 -73.23 -0.12 0 0.12 -6.12 18.37 -13.59 40.53 -12.98 38.33 -13.72 40.90 -13.84 50.82 -0.12 9.18 0.24 11.02 3.18 16.04 1.84 3.06 4.53 6.49 6.12 7.47 8.08 5.14 7.72 5.14 100.54 5.88 l89.03 0.61 -23.39 42.25 c-12.86 23.27 -25.23 45.68 -27.55 49.96 l-4.29 7.59 -90.25 -0.12 c-84.13 0 -90.87 -0.12 -98.95 -2.33z"/>
  <path d="M643.41 777.38 c0.37 -1.59 1.71 -9.18 3.18 -16.90 1.35 -7.72 2.82 -15.31 3.06 -16.78 0.61 -2.57 0.24 -2.82 -4.04 -2.82 -2.57 0 -5.02 -0.24 -5.39 -0.61 -0.37 -0.37 0 -3.55 0.86 -7.10 l1.47 -6.37 84.62 -0.37 c79.72 -0.24 84.62 -0.12 85.23 1.84 0.24 1.22 0.98 4.53 1.35 7.47 l0.86 5.14 -5.02 0 c-3.31 0 -5.02 0.49 -5.02 1.59 0 0.86 1.35 9.43 3.18 19.10 1.71 9.67 2.82 17.88 2.45 18.12 -0.37 0.37 -9.31 -2.45 -19.96 -6.25 -10.65 -3.92 -22.53 -8.20 -26.33 -9.55 l-7.10 -2.57 0 -10.16 0 -10.29 -11.63 0 -11.63 0 0 7.10 0 6.98 -6.12 0 -6 0 -0.37 -6.74 -0.37 -6.74 -11.88 -0.37 -11.88 -0.37 -0.37 10.65 -0.37 10.53 -25.10 9.06 c-13.84 5.02 -25.84 9.06 -26.70 9.06 -0.98 0 -1.35 -0.98 -0.98 -2.69z m42.37 -26.08 l0 -10.41 -12.74 0 -12.61 0 -0.86 4.65 c-0.37 2.45 -0.73 7.10 -0.73 10.41 l0 5.76 13.47 0 13.47 0 0 -10.41z m108.75 0.37 l-0.37 -10.16 -13.10 -0.37 -13.23 -0.37 0 10.53 0 10.41 13.47 0 13.59 0 -0.37 -10.04z"/>
  <path d="M678.68 710.76 l0.37 -6 6 -0.86 c9.67 -1.35 9.31 -0.73 9.31 -14.45 l0 -12.25 3.55 0 3.55 0 0.49 10.90 c0.12 6 0.73 11.39 1.22 11.88 0.61 0.49 4.65 0.37 9.18 -0.24 l8.33 -1.10 0.37 -22.53 c0.24 -17.51 0.73 -23.15 2.08 -24.61 0.98 -0.98 1.84 -5.14 2.08 -9.18 0.37 -6.37 0.73 -7.35 2.94 -7.72 2.33 -0.37 2.69 0.37 3.31 7.84 0.49 4.53 1.35 8.57 2.08 9.06 0.61 0.37 1.35 10.16 1.47 23.88 l0.37 23.27 8.20 1.35 c4.65 0.73 8.57 0.98 8.94 0.73 0.37 -0.37 0.61 -5.51 0.61 -11.51 l0 -10.78 3.67 0 3.67 0 0 11.51 c0 7.10 0.49 11.88 1.35 12.49 0.73 0.37 4.16 1.10 7.59 1.59 l6.25 0.73 0.98 5.39 c0.49 3.06 0.61 5.76 0.24 6.12 -0.24 0.37 -11.39 -0.86 -24.74 -2.82 l-24.12 -3.31 -18.98 2.45 c-10.41 1.35 -21.68 2.82 -24.86 3.31 l-5.88 0.86 0.37 -6z"/>
  <path d="M168.38 558.79 c0.24 -1.96 1.10 -8.33 1.96 -14.45 3.18 -26.21 12.61 -65.52 21.92 -91.85 19.72 -55.47 45.43 -104.09 77.03 -144.87 7.35 -9.43 9.43 -11.39 11.76 -11.02 2.33 0.24 5.76 -2.33 15.55 -11.88 6.98 -6.86 15.55 -14.82 19.23 -17.88 l6.61 -5.63 -5.14 -3.06 -5.14 -3.06 7.72 -7.23 c44.33 -41.39 111.93 -80.46 175.49 -101.28 26.94 -8.94 68.58 -17.63 94.05 -19.84 l9.67 -0.86 -0.86 2.94 c-0.61 1.47 -2.94 6.98 -5.39 12 l-4.41 9.18 -7.96 0.98 c-10.41 1.22 -36.62 6.37 -52.05 10.16 -66.50 16.78 -147.32 60.13 -192.14 103.23 -17.88 17.27 -47.39 53.76 -66.50 82.17 -36.98 55.23 -66.37 128.46 -76.66 191.04 l-2.69 16.16 -10.29 4.16 c-5.76 2.33 -10.78 4.16 -11.39 4.16 -0.49 0 -0.73 -1.47 -0.37 -3.31z"/>
  <path d="M1095.41 555.48 l-9.80 -3.92 -0.98 -6.12 c-5.88 -34.78 -14.45 -68.46 -24.86 -96.74 l-5.63 -15.19 1.96 -10.78 c0.98 -5.88 2.33 -14.45 2.82 -19.23 l0.86 -8.57 4.65 9.80 c12.61 26.57 24.49 60.99 32.21 93.07 6 24.98 11.76 61.97 9.55 61.84 -0.49 -0.12 -5.39 -1.96 -10.78 -4.16z"/>
  <path d="M243.08 259.86 c-1.35 -1.84 -5.39 -6.86 -8.94 -11.14 -6.12 -7.10 -6.49 -7.84 -4.65 -9.67 1.84 -1.84 2.82 -1.84 12 0.12 5.51 1.10 10.16 1.84 10.53 1.47 0.24 -0.24 -1.84 -3.31 -4.65 -6.74 -4.29 -5.02 -4.90 -6.49 -3.67 -7.96 0.86 -0.98 2.20 -1.84 2.94 -1.71 1.47 0 17.88 20.08 17.88 21.80 0 0.61 -0.86 1.71 -1.84 2.57 -1.35 1.10 -3.80 0.86 -11.88 -1.10 -5.51 -1.35 -10.29 -2.20 -10.53 -1.96 -0.37 0.24 1.96 3.43 5.14 7.10 5.39 6.37 5.51 6.74 3.43 8.69 -2.94 2.45 -2.82 2.57 -5.76 -1.47z"/>
  <path d="M946.13 259.37 c-6.49 -0.98 -8.20 -2.08 -18.37 -10.65 -52.17 -44.58 -115.60 -75.19 -188.71 -91.36 -12.37 -2.82 -43.60 -7.96 -47.88 -7.96 -1.59 0 -11.76 -21.92 -10.78 -23.39 2.08 -3.43 40.29 2.08 78.25 11.14 54.86 13.10 110.21 38.09 150.99 68.21 24.49 18 57.31 47.15 55.84 49.47 -0.86 1.35 -9.80 6 -11.14 5.88 -0.49 -0.12 -4.16 -0.73 -8.20 -1.35z"/>
  <path d="M1020.10 253.86 c-4.41 -3.80 -7.96 -7.35 -7.96 -7.84 0 -1.71 16.90 -21.92 18.37 -21.92 1.22 0 15.68 11.88 16.29 13.47 0.12 0.49 -0.49 1.59 -1.47 2.33 -1.59 1.35 -2.82 0.73 -7.59 -3.06 -4.29 -3.55 -6 -4.41 -7.59 -3.43 -3.18 2.08 -2.82 3.31 2.20 7.23 5.02 3.92 5.76 5.39 3.55 7.59 -1.10 1.10 -2.82 0.37 -6.74 -2.94 -4.41 -3.55 -5.76 -4.04 -7.23 -2.82 -3.06 2.45 -2.20 4.53 3.67 8.69 5.63 4.04 6.61 6 3.92 8.20 -1.10 0.98 -3.55 -0.49 -9.43 -5.51z"/>
  <path d="M1003.20 238.55 c-0.98 -0.98 -1.47 -5.63 -1.47 -12.86 0 -6.25 -0.37 -11.39 -0.86 -11.39 -0.61 0.12 -3.06 3.18 -5.76 6.86 l-4.65 6.86 -2.57 -2.45 -2.57 -2.57 7.47 -8.94 c5.88 -7.10 8.20 -9.06 11.27 -9.31 l3.80 -0.37 0 11.27 0 11.27 5.02 -6.37 c5.51 -6.98 5.27 -6.74 8.57 -4.90 2.33 1.22 2.20 1.59 -2.69 7.59 -2.82 3.55 -6.86 8.69 -8.82 11.63 -4.16 5.63 -4.53 5.88 -6.74 3.67z"/>
  <path d="M262.68 229.49 c-6 -4.29 -11.02 -8.45 -11.02 -9.18 0 -0.86 0.86 -1.96 1.96 -2.69 1.47 -0.86 3.55 0.12 9.18 4.41 3.92 3.06 7.35 5.14 7.59 4.53 0.12 -0.49 -0.98 -4.53 -2.69 -8.94 -1.59 -4.41 -2.69 -8.33 -2.33 -8.69 1.84 -1.84 8.33 -0.37 13.23 2.94 2.94 2.08 5.63 3.67 6 3.67 0.37 0 -1.10 -3.92 -3.06 -8.82 -3.67 -8.33 -3.67 -8.82 -1.59 -10.41 1.22 -0.86 2.57 -1.22 3.06 -0.73 0.98 1.10 10.90 25.59 10.90 27.06 0 0.49 -0.98 1.47 -2.20 2.33 -1.84 1.10 -3.43 0.49 -9.43 -3.43 -3.92 -2.69 -7.35 -4.65 -7.59 -4.29 -0.37 0.24 0.73 4.41 2.20 9.31 2.45 7.47 2.57 8.82 1.10 9.80 -2.94 1.84 -3.67 1.47 -15.31 -6.86z"/>
 </g>
 <g fill="#2563eb">
  <path d="M711.50 1069.57 c-44.45 -3.92 -86.09 -14.45 -123.69 -31.47 -32.08 -14.45 -51.07 -24.98 -91.97 -50.58 -81.07 -50.70 -109.60 -64.90 -146.83 -73.11 -36.49 -8.08 -66.50 -7.59 -105.68 2.08 l-7.23 1.71 3.55 -3.67 c4.90 -5.14 23.51 -16.04 36.25 -21.19 54.50 -21.92 115.60 -19.84 182.10 6.61 40.41 15.92 68.09 30.74 119.40 63.80 73.97 47.51 113.52 67.11 158.59 78.25 27.06 6.61 35.64 7.72 66.74 8.57 l29.39 0.73 -10.41 3.80 c-13.10 4.90 -32.57 9.80 -48.37 12.12 -12 1.84 -50.82 3.31 -61.84 2.33z"/>
  <path d="M1001.85 959.85 l-10.16 -6.49 7.10 -6.37 c4.04 -3.55 7.84 -6.25 8.45 -6 1.22 0.37 5.63 20.82 5.14 23.76 -0.12 0.98 -4.04 -0.86 -10.53 -4.90z"/>
  <path d="M275.29 952.13 c1.84 -7.10 3.67 -12.86 4.29 -12.86 0.49 0 4.53 2.69 8.94 6 7.96 6 7.96 6.12 5.14 7.84 -1.59 0.86 -6.61 4.04 -11.14 6.74 -4.65 2.82 -8.82 5.14 -9.31 5.14 -0.61 0 0.37 -5.76 2.08 -12.86z"/>
  <path d="M870.08 951.52 c0.37 -0.61 7.23 -6.61 15.06 -13.10 25.47 -21.06 55.11 -52.54 74.09 -78.62 26.82 -37.11 49.72 -83.15 64.90 -130.54 2.94 -9.43 7.23 -21.43 9.31 -26.70 2.08 -5.27 3.80 -10.53 3.80 -11.88 0 -3.18 5.63 -7.35 9.92 -7.35 4.29 0 4.29 0 1.10 15.43 -18.98 92.21 -65.52 174.75 -133.97 237.21 l-12.49 11.39 -13.35 2.20 c-7.47 1.10 -14.82 2.33 -16.29 2.69 -1.84 0.37 -2.57 0.12 -2.08 -0.73z"/>
  <path d="M291.70 855.14 c-20.33 -30.49 -36.25 -64.05 -49.84 -105.07 -6.98 -21.06 -16.53 -58.66 -16.53 -65.27 0 -3.43 0.24 -3.31 9.31 0.49 l7.47 3.18 0.73 9.31 c1.47 18.61 7.10 36 24.61 75.56 13.96 31.35 28.78 58.54 43.23 79.35 4.41 6.25 6.12 9.55 5.02 9.92 -0.86 0.24 -3.55 0.98 -6 1.84 -9.06 2.82 -10.16 2.33 -18 -9.31z"/>
  <path d="M518.01 825.75 c0 -0.61 0.73 -2.08 1.71 -3.43 1.71 -2.45 29.88 -53.03 60.99 -109.60 9.18 -16.53 23.02 -41.51 30.98 -55.72 7.96 -14.08 18.86 -33.68 24.25 -43.47 5.27 -9.80 12.37 -22.41 15.55 -28.17 14.70 -25.96 26.57 -48.98 25.23 -48.98 -0.73 0 -12.37 1.96 -25.84 4.41 -13.47 2.45 -29.39 5.14 -35.51 6.12 -6 0.98 -12.86 2.08 -15.19 2.45 -4.65 0.98 -4.90 1.59 4.16 -13.59 20.08 -33.55 105.32 -181.36 133.60 -231.70 l14.57 -26.08 95.52 0.37 95.52 0.37 12.25 3.31 c49.35 13.23 82.29 55.23 84.74 108.13 1.35 29.39 -5.76 55.47 -21.80 78.99 -10.53 15.55 -28.41 31.23 -45.31 39.68 -8.45 4.29 -11.27 6.86 -8.69 7.72 4.41 1.47 21.55 13.96 28.78 20.94 14.70 14.08 26.33 34.78 32.33 57.43 2.94 10.78 3.31 13.96 3.31 35.15 0 25.59 -1.96 38.21 -9.06 59.64 -10.04 29.88 -32.82 64.78 -55.72 84.99 -17.02 15.06 -40.66 29.64 -62.46 38.70 -9.80 4.04 -39.43 12 -44.82 12 -0.61 0 -1.10 -1.35 -1.10 -2.82 0 -10.65 -9.80 -35.15 -20.08 -50.45 -3.18 -4.65 -5.88 -9.06 -6 -9.55 -0.12 -0.61 4.78 -2.82 10.78 -5.02 6.12 -2.20 14.08 -5.51 17.76 -7.35 44.58 -22.53 75.93 -68.46 75.93 -111.44 0 -27.31 -14.94 -52.41 -37.96 -63.56 -17.76 -8.69 -19.10 -8.82 -75.56 -8.82 -27.80 0.12 -50.58 0 -50.58 -0.12 0 -0.12 8.69 -11.27 19.35 -24.61 10.53 -13.47 27.19 -34.66 36.98 -47.27 l17.76 -22.78 22.78 -0.12 c18.37 0 24.49 -0.49 31.96 -2.33 22.04 -5.63 38.94 -18.61 47.88 -36.62 5.02 -10.16 5.14 -10.78 5.14 -22.78 0 -11.51 -0.24 -12.98 -4.04 -20.57 -4.53 -9.43 -11.02 -15.68 -21.06 -20.45 l-6.74 -3.18 -58.78 -0.37 c-46.54 -0.24 -59.27 0 -60.74 1.22 -3.55 2.82 -81.44 115.85 -80.46 116.71 0.24 0.37 5.14 -0.24 10.90 -1.22 28.17 -4.90 77.03 -11.27 77.03 -9.92 0 0.37 -5.39 7.23 -12 15.06 -27.55 33.06 -61.11 73.72 -81.68 98.83 -51.43 62.70 -85.72 104.70 -103.48 126.87 -10.41 12.98 -25.35 31.35 -33.06 40.78 -25.72 31.23 -39.31 47.88 -49.72 60.74 -5.63 6.98 -10.29 12.12 -10.29 11.51z"/>
  <path d="M230.23 669.25 c-5.02 -2.20 -19.10 -8.45 -31.23 -13.72 -12.12 -5.27 -40.04 -17.63 -62.21 -27.31 -22.04 -9.67 -39.92 -18.12 -39.68 -18.74 0.37 -1.35 5.63 -3.67 49.84 -22.29 17.14 -7.23 34.04 -14.33 37.35 -15.92 3.43 -1.59 10.29 -4.53 15.31 -6.49 5.02 -2.08 15.68 -6.49 23.63 -9.92 7.96 -3.43 15.31 -6.25 16.29 -6.25 1.47 0 1.71 9.55 1.71 62.46 0 34.41 -0.37 62.46 -0.86 62.33 -0.61 0 -5.14 -1.84 -10.16 -4.16z m-44.58 -39.55 c0.73 -0.49 2.69 -5.02 4.41 -10.04 4.16 -12.61 6 -12.61 10.16 -0.12 3.18 9.80 3.31 9.92 7.35 9.92 l4.16 0 6.12 -19.23 c3.31 -10.65 5.88 -19.47 5.63 -19.84 -0.37 -0.24 -2.33 0 -4.41 0.61 -3.55 0.98 -4.04 1.96 -7.35 12.61 -1.96 6.37 -3.80 11.76 -4.04 12.12 -0.24 0.24 -2.33 -5.27 -4.65 -12.25 -3.92 -12.25 -4.16 -12.61 -7.59 -12.61 -3.43 0 -3.80 0.49 -7.84 12.61 -2.33 6.98 -4.41 12.37 -4.78 12 -0.37 -0.24 -2.08 -5.88 -4.04 -12.37 -1.96 -6.49 -3.67 -12.12 -4.04 -12.37 -1.10 -1.10 -6.98 0.98 -6.98 2.45 0 0.86 2.20 8.33 4.90 16.65 2.69 8.33 4.90 15.80 4.90 16.53 0 3.31 5.02 5.39 8.08 3.31z"/>
  <path d="M1039.69 670.35 c0 -0.24 1.22 -7.47 2.69 -16.04 3.80 -22.41 3.80 -61.48 0 -84.25 -1.47 -8.69 -3.06 -17.39 -3.43 -19.23 -0.61 -2.69 -0.37 -3.43 1.35 -3.43 3.55 0 145.12 59.64 145.12 61.11 0 0.37 -8.45 4.29 -18.74 8.57 -10.16 4.29 -20.33 8.82 -22.29 9.92 -2.08 1.10 -5.27 2.45 -6.98 2.82 -3.31 0.86 -17.14 6.86 -23.39 10.04 -1.96 0.98 -4.04 1.84 -4.78 1.84 -0.61 0 -2.94 0.73 -5.02 1.71 -2.20 0.98 -13.23 5.76 -24.74 10.53 -11.39 4.90 -25.10 10.65 -30.25 12.98 -5.27 2.20 -9.55 3.80 -9.55 3.43z m60.01 -44.58 l0 -3.67 -11.02 0 -11.02 0 0 -4.29 0 -4.29 9.06 0 9.06 0 0.49 -3.67 c0.37 -2.08 0.24 -3.92 0 -4.29 -0.37 -0.37 -4.65 -0.61 -9.67 -0.61 l-8.94 0 0 -3.67 0 -3.55 10.78 -0.37 10.65 -0.37 0.37 -3.92 0.37 -4.04 -15.31 0 -15.43 0 0 20.21 0 20.21 15.31 0 15.31 0 0 -3.67z"/>
  <path d="M226.55 535.15 c0 -6.74 9.92 -44.70 17.51 -66.74 15.43 -44.94 41.15 -92.70 70.90 -131.03 14.08 -18.12 47.39 -51.68 64.66 -65.03 42 -32.45 91.60 -59.76 133.36 -73.23 19.10 -6.25 41.39 -11.51 52.41 -12.49 l9.06 -0.86 -1.96 4.78 c-1.10 2.57 -2.94 7.10 -3.92 9.80 -1.71 4.90 -1.96 5.14 -9.92 7.10 -7.35 1.84 -14.33 3.80 -35.15 10.16 -13.72 4.16 -43.84 16.90 -61.23 25.72 -4.65 2.45 -10.16 5.27 -12.25 6.25 -6.37 3.18 -25.35 14.33 -34.90 20.45 -29.02 18.49 -72.74 61.35 -97.60 95.52 -33.31 45.92 -57.31 99.68 -71.88 161.40 -0.49 1.84 -1.96 3.92 -3.55 4.41 -1.47 0.61 -5.63 2.20 -9.06 3.67 -6.49 2.57 -6.49 2.57 -6.49 0.12z"/>
  <path d="M1040.06 533.32 c-7.23 -3.31 -8.94 -4.78 -9.67 -7.59 -0.37 -1.84 -2.08 -8.82 -3.80 -15.31 l-3.06 -11.88 5.39 -6.74 c2.94 -3.67 6.12 -6.61 7.10 -6.49 1.10 0.12 3.06 5.14 5.63 14.94 5.14 19.96 8.94 37.35 7.96 37.23 -0.37 0 -4.65 -1.84 -9.55 -4.16z"/>
  <path d="M985.81 280.07 c-4.41 -4.16 -9.80 -9.06 -12.12 -10.78 -2.69 -1.96 -3.92 -3.67 -3.31 -4.53 1.35 -2.20 24.74 -13.72 27.80 -13.72 2.08 0 2.45 0.61 1.84 3.43 -0.37 1.84 -1.59 9.43 -2.69 16.78 -1.10 7.47 -2.45 14.08 -2.82 14.94 -0.49 0.86 -3.67 -1.35 -8.69 -6.12z"/>
  <path d="M279.95 267.45 c-1.84 -9.18 -3.06 -16.90 -2.82 -17.14 0.49 -0.49 26.45 11.14 27.55 12.37 0.37 0.24 -20.57 21.43 -21.31 21.43 0 0 -1.59 -7.47 -3.43 -16.65z"/>
  <path d="M841.31 254.47 c-28.17 -18 -77.27 -37.84 -114.13 -46.05 l-15.06 -3.43 -3.92 -9.43 c-3.43 -8.08 -3.67 -9.67 -2.08 -10.29 5.02 -1.84 48.62 8.82 75.80 18.61 29.15 10.53 78.74 37.35 95.76 51.68 l4.65 3.92 -16.53 0 -16.53 0.12 -7.96 -5.14z"/>
  <path d="M628.71 229.12 c5.14 -10.16 10.04 -18.49 10.90 -18.49 1.47 0 19.84 35.27 18.86 36.25 -0.24 0.24 -4.65 -0.98 -9.80 -2.82 l-9.43 -3.43 -8.20 2.94 c-4.65 1.59 -9.06 3.18 -9.92 3.55 -0.98 0.37 2.57 -7.72 7.59 -18z"/>
  <path d="M580.46 199 c0 -1.10 35.15 -78.38 46.90 -103.11 6.12 -12.98 11.63 -23.63 12.25 -23.63 0.49 0 2.69 3.67 4.78 8.33 2.08 4.53 9.80 21.43 17.27 37.60 7.47 16.16 18.61 40.66 24.86 54.50 l11.27 25.10 -7.47 0.61 c-10.04 0.86 -109.85 1.35 -109.85 0.61z m50.21 -33.68 c0 -8.69 0.24 -9.80 2.20 -9.80 1.47 0 4.90 3.67 9.31 9.80 6.12 8.33 7.59 9.80 10.65 9.80 l3.55 0 0 -20.21 0 -20.21 -3.67 0 -3.55 0 -0.37 12.61 -0.37 12.49 -9.55 -12.49 c-8.33 -11.02 -10.04 -12.61 -13.10 -12.61 l-3.67 0 0 20.21 0 20.21 4.29 0 4.29 0 0 -9.80z"/>
 </g>
</svg>